<svg width="81" height="49" viewBox="0 0 81 49" fill="none" xmlns="http://www.w3.org/2000/svg">
<path d="M29.4326 8.92741C29.4326 8.92741 53.6536 -4.37595 71.2813 1.49682C86.1338 6.60766 79.5424 22.4005 79.5424 22.4005C79.5424 22.4005 80.8599 10.5421 67.8891 6.2911C57.8618 3.00471 45.1975 5.09278 29.4336 8.92741H29.4326Z" fill="#ED652B"/>
<path d="M51.5662 39.6723C51.5662 39.6723 27.3452 52.9757 9.71848 47.1029C-5.13395 41.9931 1.4574 26.2002 1.4574 26.2002C1.4574 26.2002 0.139923 38.0586 13.1107 42.3096C23.138 45.596 35.8023 43.5079 51.5662 39.6733V39.6723Z" fill="#ED652B"/>
<path d="M71.3218 14.883C71.3218 14.5075 71.3168 14.1161 71.3228 13.7236C71.3328 13.0855 71.3527 12.4474 71.3606 11.8083C71.3656 11.4468 71.2362 11.31 70.882 11.298C70.6113 11.2891 70.3407 11.296 70.07 11.296C66.3276 11.296 62.5851 11.2931 58.8426 11.3C58.4177 11.3 57.9879 11.322 57.5679 11.3849C56.3112 11.5747 55.3091 12.1778 54.6315 13.2813C54.2106 13.9673 53.9817 14.7252 53.8314 15.5071C53.6046 16.6845 53.3926 17.8658 53.1827 19.0462C53.0434 19.8271 52.906 20.61 52.919 21.4089C52.9389 22.6471 53.5061 23.3601 54.7191 23.5658C55.33 23.6697 55.9559 23.7156 56.5759 23.7226C58.3789 23.7426 60.183 23.7286 61.9861 23.7316C62.1881 23.7316 62.393 23.7436 62.5921 23.7756C62.9035 23.8255 63.0518 23.9793 63.013 24.2918C62.9403 24.876 62.8378 25.4572 62.7184 26.0334C62.6597 26.315 62.4508 26.4957 62.1562 26.5167C61.6846 26.5507 61.2109 26.5786 60.7372 26.5796C58.7521 26.5866 56.7659 26.5856 54.7798 26.5796C54.2036 26.5776 53.6275 26.5267 53.0792 26.34C52.712 26.2151 52.3617 26.0394 51.9945 25.8816C51.9916 25.9285 51.9836 25.9865 51.9836 26.0454C51.9766 27.031 51.9697 28.0156 51.9647 29.0012C51.9617 29.5265 52.0224 29.5854 52.5438 29.5854C56.6525 29.5814 60.7611 29.5784 64.8698 29.5694C65.227 29.5694 65.5872 29.5385 65.9415 29.4885C67.4172 29.2808 68.4739 28.5019 69.0919 27.1328C69.4889 26.2531 69.672 25.3134 69.8481 24.3767C70.0889 23.0915 70.2889 21.7983 70.5019 20.5081C70.5825 20.0178 70.6372 19.5255 70.5307 19.0312C70.3496 18.1864 69.7944 17.6841 69.0262 17.3795C68.2719 17.0809 67.4799 16.9981 66.6778 16.9961C65.0439 16.9921 63.41 16.9981 61.7761 16.9921C61.4318 16.9911 61.0855 16.9701 60.7452 16.9232C60.5114 16.8912 60.385 16.7384 60.4168 16.5067C60.4944 15.9455 60.593 15.3853 60.7134 14.8311C60.7671 14.5814 60.9701 14.4376 61.2258 14.3957C61.3651 14.3727 61.5074 14.3568 61.6487 14.3548C62.1094 14.3458 62.5702 14.3418 63.0309 14.3408C63.7354 14.3388 64.4399 14.3408 65.1444 14.3408C65.9096 14.3408 66.6758 14.3558 67.441 14.3328C68.3565 14.3058 69.271 14.2928 70.1665 14.5165C70.5626 14.6154 70.9467 14.7622 71.3218 14.883ZM12.3628 11.297C12.3857 11.352 12.3967 11.3819 12.4106 11.4119C12.6683 11.9731 12.7748 12.5643 12.7002 13.1764C12.6216 13.8285 12.5221 14.4786 12.4116 15.1257C12.0882 17.016 11.7559 18.9054 11.4235 20.7937C11.0902 22.6891 10.7538 24.5834 10.4145 26.4778C10.2453 27.4214 10.0264 28.3501 9.53884 29.191C9.47515 29.2998 9.42938 29.4186 9.36569 29.5535H17.3263C17.3203 29.4995 17.3203 29.4536 17.3103 29.4087C17.186 28.8494 17.0994 28.2792 17.184 27.712C17.386 26.3649 17.6188 25.0228 17.8437 23.6797C17.9263 23.1854 18.0626 23.0785 18.5621 23.0795C20.6438 23.0835 22.7255 23.0965 24.8062 23.0825C25.5147 23.0775 26.2331 23.0656 26.9307 22.9527C28.6154 22.6811 29.7607 21.7254 30.2622 20.0658C30.4602 19.4117 30.6294 18.7476 30.7717 18.0795C31.0702 16.6775 31.2861 15.2625 31.2841 13.8245C31.2831 12.9997 30.9319 12.3596 30.2025 11.9501C29.3786 11.4878 28.482 11.305 27.5496 11.304C22.5663 11.297 17.583 11.3 12.5987 11.299C12.531 11.299 12.4634 11.299 12.3619 11.299L12.3628 11.297ZM53.9976 11.317C53.9538 11.307 53.9419 11.301 53.929 11.301C52.5588 11.299 51.1895 11.299 49.8193 11.296C49.6332 11.296 49.5696 11.3939 49.5636 11.5627C49.5566 11.7864 49.5606 12.012 49.5327 12.2337C49.4442 12.9258 49.1576 13.5479 48.8213 14.1461C47.7993 15.9595 46.7694 17.769 45.7425 19.5804C44.6519 21.5037 43.5633 23.428 42.4697 25.3503C42.424 25.4302 42.3443 25.4921 42.2498 25.596C42.1642 25.1227 42.0906 24.7102 42.014 24.2978C41.6936 22.5722 41.3722 20.8477 41.0527 19.1221C40.7572 17.5293 40.4666 15.9365 40.1691 14.3448C40.0477 13.6947 39.9582 13.0426 40.0776 12.3835C40.1233 12.1319 40.2089 11.8872 40.2885 11.6436C40.3741 11.3819 40.3273 11.303 40.0607 11.298C40.0338 11.298 40.0059 11.298 39.9791 11.298C37.3282 11.298 34.6763 11.298 32.0255 11.298C31.9608 11.298 31.8961 11.298 31.7996 11.298C31.8334 11.353 31.8473 11.3809 31.8662 11.4059C32.1837 11.8133 32.4115 12.2677 32.512 12.773C32.7509 13.9753 32.9758 15.1806 33.1986 16.3859C33.5071 18.0586 33.8076 19.7322 34.1121 21.4059C34.4047 23.0126 34.6992 24.6184 34.9918 26.2251C35.1679 27.1918 35.343 28.1584 35.5211 29.1251C35.5799 29.4446 35.6953 29.5555 36.0167 29.5924C36.156 29.6084 36.2993 29.5884 36.4416 29.5884C38.5571 29.5884 40.6716 29.5744 42.7872 29.5984C43.2797 29.6044 43.5852 29.4336 43.8171 29.0112C45.1684 26.5517 46.5366 24.1011 47.8879 21.6415C49.5507 18.6158 51.2224 15.595 53.0961 12.6931C53.3896 12.2387 53.6882 11.7874 53.9966 11.317H53.9976ZM26.8839 36.9181C27.5675 36.9181 28.2521 36.9481 28.9338 36.9101C29.7806 36.8642 30.4075 36.3719 30.6164 35.556C30.8224 34.7512 30.9786 33.9303 31.104 33.1075C31.2115 32.3975 30.7607 31.8502 30.0443 31.7833C29.3577 31.7194 28.6671 31.6775 27.9785 31.6715C27.282 31.6655 26.5844 31.7034 25.8889 31.7464C24.8689 31.8103 24.2868 32.2836 24.049 33.2752C23.8788 33.9852 23.7494 34.7062 23.6261 35.4272C23.4808 36.276 23.9534 36.8752 24.8142 36.9111C25.5028 36.9401 26.1943 36.9171 26.8849 36.9171L26.8839 36.9181ZM64.0598 36.9181C64.0598 36.9361 64.0598 36.9541 64.0608 36.9731C64.7772 36.9391 65.4947 36.9161 66.2101 36.8692C67.2281 36.8013 67.7625 36.333 67.9973 35.3264C68.0431 35.1286 68.0898 34.9309 68.1247 34.7312C68.2222 34.178 68.3456 33.6277 68.3983 33.0705C68.466 32.3625 68.1107 31.9281 67.4122 31.8253C67.0331 31.7694 66.645 31.7534 66.2609 31.7514C65.3534 31.7464 64.4459 31.7634 63.5384 31.7654C63.0846 31.7654 62.6309 31.7494 62.1781 31.7504C61.8617 31.7504 61.7761 31.8273 61.7164 32.1418C61.5144 33.1993 61.3144 34.2569 61.1134 35.3154C61.0318 35.7478 60.9432 36.1792 60.8686 36.6126C60.8228 36.8772 60.8746 36.9321 61.1363 36.9331C61.2915 36.9331 61.4477 36.9221 61.603 36.9221C62.4219 36.9211 63.2418 36.9221 64.0608 36.9221L64.0598 36.9181ZM12.9211 31.6615C12.2186 31.6915 11.6086 31.7074 11.0006 31.7444C9.94184 31.8083 9.34977 32.3056 9.101 33.3391C8.99851 33.7665 8.90597 34.1979 8.8393 34.6333C8.77462 35.0537 8.7189 35.4791 8.71392 35.9026C8.70994 36.291 8.92189 36.6096 9.28509 36.7434C9.59556 36.8582 9.93786 36.9271 10.2682 36.9401C10.8971 36.9661 11.528 36.9371 12.1579 36.9311C12.733 36.9261 13.3092 36.9371 13.8833 36.9141C14.6635 36.8842 15.151 36.4857 15.3311 35.7298C15.4525 35.2235 15.5361 34.7072 15.6386 34.1959C15.6725 34.0252 15.5899 33.9493 15.4316 33.9503C14.4157 33.9543 13.3987 33.9583 12.3828 33.9713C12.132 33.9743 12.0275 34.0991 12.0116 34.3607C12.0036 34.5035 12.0106 34.6463 11.9957 34.7881C11.9728 35.0088 11.9907 35.0378 12.2106 35.0378C12.6713 35.0378 13.132 35.0328 13.5928 35.0408C13.6694 35.0418 13.7888 35.0797 13.8097 35.1316C13.8385 35.2055 13.8206 35.3264 13.7739 35.3953C13.6515 35.577 13.4694 35.6968 13.2475 35.6988C12.4484 35.7048 11.6494 35.7078 10.8503 35.6919C10.5538 35.6859 10.3697 35.4382 10.4185 35.1187C10.4961 34.6034 10.5896 34.0891 10.7041 33.5808C10.7896 33.2013 11.0822 32.9697 11.4663 32.9647C12.2524 32.9527 13.0385 32.9597 13.8256 32.9627C13.9788 32.9627 14.0873 33.0176 14.1291 33.1963C14.1888 33.45 14.3241 33.5429 14.5838 33.5439C14.7868 33.5439 14.9908 33.5419 15.1928 33.5239C15.6247 33.4849 15.9013 33.2433 15.8874 32.8728C15.8685 32.3725 15.6595 31.8642 14.9948 31.7883C14.2764 31.7064 13.55 31.6975 12.9191 31.6615H12.9211ZM22.0499 34.875C22.419 34.7312 22.7086 34.5085 22.8599 34.143C23.0718 33.6327 23.1435 33.0955 23.0987 32.5483C23.0688 32.1818 22.8529 31.9311 22.4937 31.8412C22.2986 31.7923 22.0937 31.7693 21.8926 31.7674C20.4359 31.7554 18.9801 31.7514 17.5233 31.7454C17.1591 31.7434 17.0317 31.8403 16.9631 32.1938C16.7461 33.3172 16.5302 34.4406 16.3183 35.565C16.2556 35.8976 16.2018 36.2321 16.1581 36.5676C16.1342 36.7474 16.2277 36.8922 16.4048 36.9061C16.7332 36.9331 17.0656 36.9321 17.3959 36.9261C17.5949 36.9221 17.6944 36.7853 17.7273 36.5996C17.7621 36.4068 17.791 36.2131 17.8178 36.0184C17.8636 35.6889 18.0208 35.56 18.3542 35.573C18.6985 35.587 19.0438 35.596 19.389 35.601C19.7542 35.606 20.1194 35.593 20.4846 35.607C20.8588 35.621 20.9722 35.7837 20.8976 36.1552C20.8717 36.281 20.8409 36.4078 20.8339 36.5357C20.818 36.8482 20.9244 36.9591 21.2349 36.9561C21.4578 36.9541 21.6797 36.9271 21.9026 36.9341C22.3305 36.9461 22.4688 36.8432 22.5394 36.4108C22.635 35.8267 22.4937 35.3124 22.0509 34.876L22.0499 34.875ZM42.5473 35.613C42.5473 35.613 42.5473 35.621 42.5473 35.6259C42.9543 35.6259 43.3603 35.621 43.7673 35.6259C44.5763 35.6369 45.1276 35.2595 45.4529 34.5255C45.6679 34.0392 45.7555 33.5239 45.7555 33.0016C45.7564 32.2227 45.3594 31.7983 44.5932 31.7833C43.1444 31.7554 41.6946 31.7554 40.2457 31.7494C39.9721 31.7484 39.8437 31.8712 39.792 32.1468C39.6308 33.0046 39.4676 33.8624 39.3104 34.7212C39.2029 35.3074 39.0994 35.8936 39.0039 36.4817C38.9561 36.7783 39.0546 36.9271 39.3382 36.9451C39.6338 36.9631 39.9323 36.9411 40.2298 36.9271C40.4209 36.9181 40.5164 36.7883 40.5502 36.6136C40.589 36.4148 40.6209 36.2141 40.6507 36.0134C40.6945 35.7108 40.804 35.613 41.1055 35.614C41.5861 35.615 42.0667 35.614 42.5483 35.614L42.5473 35.613ZM34.5818 36.9261C34.5818 36.9361 34.5818 36.9461 34.5818 36.9561C35.0564 36.9561 35.5301 36.9611 36.0047 36.9551C37.1879 36.9391 37.9203 36.334 38.1611 35.1766C38.2536 34.7322 38.3471 34.2888 38.4287 33.8424C38.5282 33.2962 38.6208 32.749 38.7064 32.2007C38.7442 31.9591 38.6457 31.8113 38.4277 31.7883C38.1591 31.7604 37.8874 31.7454 37.6178 31.7504C37.3332 31.7564 37.2008 31.8822 37.1481 32.1628C37.0754 32.5493 37.0197 32.9377 36.9421 33.3232C36.8297 33.8864 36.7132 34.4496 36.5809 35.0088C36.4953 35.3723 36.2406 35.594 35.8734 35.606C35.1908 35.6279 34.5062 35.6269 33.8236 35.606C33.4703 35.595 33.2892 35.3853 33.325 35.0258C33.3688 34.5824 33.4663 34.145 33.54 33.7046C33.6295 33.1714 33.734 32.6391 33.8017 32.1029C33.8365 31.8233 33.7031 31.7004 33.4196 31.7024C33.1429 31.7034 32.8653 31.7264 32.5897 31.7494C32.4066 31.7654 32.3011 31.8722 32.2673 32.0579C32.0692 33.1364 31.8623 34.2129 31.6692 35.2924C31.4981 36.2511 31.8911 36.8143 32.8573 36.9151C33.4265 36.9741 34.0066 36.9261 34.5818 36.9261ZM55.6554 33.0486C55.6554 33.0486 55.6554 33.0456 55.6554 33.0436C55.9599 33.0436 56.2634 33.0466 56.5679 33.0436C56.8744 33.0396 56.9858 33.1644 56.9271 33.475C56.8266 34.0142 56.7162 34.5514 56.6147 35.0907C56.5331 35.5241 56.4535 35.9575 56.3788 36.3919C56.3122 36.7793 56.3997 36.8912 56.7818 36.9201C56.957 36.9331 57.1331 36.9471 57.3082 36.9491C57.7679 36.9521 57.8894 36.8392 57.97 36.3879C58.1451 35.4073 58.3252 34.4276 58.5063 33.448C58.562 33.1474 58.7133 33.0416 59.0207 33.0506C59.4884 33.0635 59.9551 33.0715 60.4228 33.0735C60.7183 33.0745 60.8656 32.9297 60.9044 32.6331C60.9263 32.4654 60.9552 32.2976 60.993 32.1328C61.0557 31.8602 60.996 31.7624 60.7183 31.7514C60.5163 31.7434 60.3124 31.7664 60.1094 31.7654C58.5172 31.7614 56.9251 31.7534 55.332 31.7494C55.1977 31.7494 55.0474 31.7484 55.0076 31.9251C54.9489 32.1898 54.8832 32.4534 54.8474 32.721C54.8136 32.9757 54.9091 33.0705 55.1668 33.0725C55.329 33.0745 55.4912 33.0585 55.6534 33.0496L55.6554 33.0486ZM52.1508 36.9491C52.1508 36.9431 52.1508 36.9371 52.1508 36.9311C52.8284 36.9311 53.5061 36.9311 54.1837 36.9311C54.526 36.9311 54.5588 36.9032 54.6255 36.5676C54.6504 36.4418 54.6663 36.313 54.6952 36.1882C54.8215 35.6289 54.7658 35.571 54.1907 35.581C53.3449 35.596 52.4991 35.598 51.6532 35.6C51.3547 35.6 51.2821 35.5111 51.3388 35.2065C51.4522 34.6004 51.5786 33.9972 51.6891 33.3911C51.7647 32.9787 51.8373 32.5642 51.8811 32.1468C51.913 31.8432 51.8184 31.7504 51.5169 31.7374C51.2472 31.7264 50.9756 31.7394 50.7059 31.7494C50.495 31.7574 50.3746 31.8722 50.3338 32.0829C50.0512 33.5588 49.7646 35.0348 49.482 36.5107C49.4203 36.8333 49.5317 36.9511 49.8561 36.9501C50.6213 36.9471 51.3856 36.9491 52.1508 36.9491Z" fill="#BEE0FF"/>
<path d="M71.3221 14.883C70.9459 14.7621 70.5618 14.6153 70.1668 14.5165C69.2712 14.2928 68.3578 14.3058 67.4413 14.3327C66.6761 14.3557 65.9099 14.3397 65.1447 14.3407C64.4402 14.3407 63.7356 14.3387 63.0311 14.3407C62.5704 14.3417 62.1097 14.3457 61.649 14.3547C61.5077 14.3577 61.3654 14.3737 61.2261 14.3957C60.9703 14.4376 60.7674 14.5804 60.7136 14.831C60.5942 15.3853 60.4947 15.9445 60.4171 16.5067C60.3852 16.7384 60.5116 16.8902 60.7455 16.9231C61.0858 16.97 61.4321 16.991 61.7764 16.992C63.4103 16.999 65.0442 16.992 66.6781 16.996C67.4801 16.998 68.2722 17.0809 69.0264 17.3795C69.7946 17.684 70.3509 18.1863 70.531 19.0312C70.6365 19.5265 70.5827 20.0178 70.5021 20.5081C70.2892 21.7983 70.0892 23.0915 69.8484 24.3767C69.6732 25.3143 69.4892 26.253 69.0921 27.1328C68.4742 28.5019 67.4184 29.2808 65.9417 29.4885C65.5875 29.5384 65.2283 29.5684 64.87 29.5694C60.7614 29.5794 56.6527 29.5814 52.5441 29.5854C52.0217 29.5854 51.962 29.5264 51.9649 29.0012C51.9699 28.0156 51.9769 27.0309 51.9839 26.0453C51.9839 25.9874 51.9918 25.9295 51.9948 25.8816C52.362 26.0383 52.7122 26.2141 53.0794 26.3399C53.6277 26.5266 54.2039 26.5776 54.78 26.5796C56.7652 26.5856 58.7513 26.5856 60.7375 26.5796C61.2102 26.5776 61.6838 26.5506 62.1565 26.5167C62.451 26.4957 62.66 26.3149 62.7187 26.0333C62.8381 25.4571 62.9406 24.876 63.0132 24.2918C63.052 23.9782 62.9038 23.8254 62.5923 23.7755C62.3933 23.7435 62.1883 23.7316 61.9863 23.7316C60.1832 23.7286 58.3792 23.7425 56.5761 23.7226C55.9562 23.7156 55.3303 23.6697 54.7193 23.5658C53.5063 23.3601 52.9381 22.6471 52.9192 21.4088C52.9063 20.6099 53.0436 19.827 53.1829 19.0461C53.3929 17.8648 53.6048 16.6844 53.8317 15.5071C53.982 14.7252 54.2108 13.9682 54.6317 13.2812C55.3084 12.1778 56.3114 11.5746 57.5682 11.3849C57.9881 11.321 58.417 11.3 58.8429 11.3C62.5853 11.294 66.3278 11.296 70.0703 11.296C70.3409 11.296 70.6116 11.288 70.8822 11.298C71.2375 11.31 71.3659 11.4468 71.3609 11.8083C71.3529 12.4464 71.332 13.0845 71.3231 13.7236C71.3171 14.115 71.3221 14.5075 71.3221 14.883Z" fill="#000333"/>
<path d="M53.9978 11.3169C53.6894 11.7872 53.3908 12.2386 53.0973 12.6929C51.2236 15.5949 49.5519 18.6156 47.8891 21.6414C46.5378 24.101 45.1696 26.5515 43.8183 29.0111C43.5864 29.4325 43.2809 29.6032 42.7884 29.5982C40.6738 29.5743 38.5583 29.5883 36.4428 29.5883C36.3015 29.5883 36.1572 29.6082 36.0179 29.5923C35.6965 29.5553 35.5811 29.4435 35.5224 29.1249C35.3432 28.1583 35.1691 27.1916 34.993 26.225C34.6994 24.6182 34.4059 23.0125 34.1133 21.4057C33.8088 19.7321 33.5083 18.0584 33.1999 16.3858C32.978 15.1805 32.7521 13.9751 32.5133 12.7728C32.4128 12.2675 32.1849 11.8132 31.8675 11.4057C31.8485 11.3808 31.8336 11.3528 31.8008 11.2979C31.8963 11.2979 31.961 11.2979 32.0267 11.2979C34.6775 11.2979 37.3294 11.2979 39.9803 11.2979C40.0071 11.2979 40.035 11.2979 40.0619 11.2979C40.3295 11.3029 40.3763 11.3818 40.2897 11.6434C40.2101 11.8871 40.1246 12.1327 40.0788 12.3834C39.9594 13.0415 40.0489 13.6935 40.1703 14.3446C40.4679 15.9364 40.7594 17.5302 41.054 19.1219C41.3734 20.8475 41.6958 22.5721 42.0152 24.2977C42.0918 24.7101 42.1645 25.1225 42.251 25.5959C42.3456 25.492 42.4252 25.4311 42.4709 25.3502C43.5635 23.4279 44.6531 21.5036 45.7437 19.5803C46.7706 17.7688 47.8005 15.9594 48.8225 14.1459C49.1598 13.5477 49.4464 12.9256 49.534 12.2336C49.5618 12.0119 49.5578 11.7862 49.5648 11.5625C49.5698 11.3938 49.6345 11.2959 49.8205 11.2959C51.1907 11.2989 52.56 11.2989 53.9302 11.3009C53.9431 11.3009 53.956 11.3069 53.9988 11.3169H53.9978Z" fill="#000333"/>
<path d="M12.921 31.6616C13.5519 31.6976 14.2783 31.7066 14.9968 31.7884C15.6615 31.8643 15.8704 32.3726 15.8893 32.8729C15.9033 33.2434 15.6266 33.4851 15.1948 33.524C14.9928 33.542 14.7888 33.545 14.5858 33.544C14.3271 33.544 14.1908 33.4501 14.1311 33.1965C14.0893 33.0177 13.9808 32.9638 13.8276 32.9628C13.0415 32.9598 12.2543 32.9538 11.4682 32.9648C11.0832 32.9708 10.7916 33.2025 10.706 33.5809C10.5906 34.0892 10.498 34.6035 10.4204 35.1188C10.3717 35.4383 10.5558 35.686 10.8523 35.692C11.6513 35.709 12.4504 35.705 13.2494 35.699C13.4713 35.697 13.6534 35.5771 13.7758 35.3954C13.8216 35.3275 13.8395 35.2057 13.8116 35.1318C13.7917 35.0798 13.6713 35.0419 13.5947 35.0409C13.134 35.0329 12.6733 35.0379 12.2126 35.0379C11.9926 35.0379 11.9737 35.0099 11.9976 34.7882C12.0125 34.6464 12.0056 34.5026 12.0135 34.3608C12.0295 34.0992 12.1339 33.9744 12.3847 33.9714C13.4007 33.9584 14.4176 33.9544 15.4336 33.9504C15.5908 33.9504 15.6744 34.0253 15.6406 34.1961C15.5391 34.7074 15.4545 35.2226 15.3331 35.7299C15.153 36.4859 14.6654 36.8833 13.8853 36.9143C13.3111 36.9362 12.735 36.9262 12.1598 36.9312C11.5299 36.9362 10.8991 36.9662 10.2702 36.9402C9.93882 36.9272 9.59751 36.8583 9.28705 36.7435C8.92385 36.6087 8.7119 36.2911 8.71588 35.9027C8.72085 35.4793 8.77657 35.0539 8.84125 34.6335C8.90792 34.1991 9.00047 33.7677 9.10296 33.3393C9.35173 32.3057 9.94379 31.8084 11.0025 31.7445C11.6105 31.7076 12.2195 31.6916 12.923 31.6616H12.921Z" fill="#000333"/>
<path d="M34.5823 36.9273C34.0072 36.9273 33.4271 36.9752 32.8579 36.9163C31.8917 36.8155 31.4986 36.2522 31.6698 35.2936C31.8618 34.2141 32.0698 33.1376 32.2678 32.0591C32.3016 31.8724 32.4071 31.7655 32.5902 31.7506C32.8668 31.7276 33.1435 31.7046 33.4201 31.7036C33.7037 31.7026 33.837 31.8254 33.8022 32.1041C33.7355 32.6403 33.6301 33.1716 33.5405 33.7058C33.4669 34.1462 33.3693 34.5836 33.3256 35.027C33.2897 35.3865 33.4708 35.5962 33.8241 35.6071C34.5067 35.6281 35.1913 35.6291 35.8739 35.6071C36.2411 35.5952 36.4949 35.3735 36.5814 35.01C36.7138 34.4508 36.8302 33.8876 36.9426 33.3243C37.0203 32.9389 37.076 32.5504 37.1486 32.164C37.2014 31.8834 37.3337 31.7575 37.6183 31.7516C37.888 31.7456 38.1596 31.7615 38.4283 31.7895C38.6472 31.8125 38.7447 31.9603 38.7069 32.2019C38.6213 32.7502 38.5298 33.2984 38.4293 33.8436C38.3477 34.29 38.2542 34.7344 38.1616 35.1777C37.9208 36.3351 37.1884 36.9413 36.0053 36.9563C35.5306 36.9622 35.057 36.9573 34.5823 36.9573C34.5823 36.9473 34.5823 36.9373 34.5823 36.9273Z" fill="#000333"/>
<path d="M55.6563 33.0493C55.4941 33.0573 55.3319 33.0733 55.1697 33.0723C54.912 33.0693 54.8165 32.9744 54.8503 32.7208C54.8861 32.4531 54.9518 32.1885 55.0105 31.9249C55.0503 31.7481 55.2006 31.7491 55.3349 31.7491C56.927 31.7531 58.5191 31.7601 60.1123 31.7651C60.3152 31.7651 60.5182 31.7421 60.7212 31.7511C60.9989 31.7631 61.0586 31.86 60.9959 32.1326C60.9581 32.2973 60.9292 32.4651 60.9073 32.6329C60.8685 32.9285 60.7212 33.0743 60.4257 33.0733C59.958 33.0713 59.4913 33.0633 59.0236 33.0503C58.7172 33.0413 58.5649 33.1472 58.5092 33.4477C58.3281 34.4274 58.147 35.407 57.9728 36.3876C57.8922 36.839 57.7699 36.9518 57.3111 36.9488C57.135 36.9478 56.9599 36.9338 56.7847 36.9199C56.4016 36.8909 56.3151 36.7791 56.3817 36.3916C56.4564 35.9572 56.536 35.5238 56.6176 35.0904C56.7191 34.5512 56.8295 34.0139 56.93 33.4747C56.9887 33.1631 56.8773 33.0383 56.5708 33.0433C56.2663 33.0473 55.9628 33.0433 55.6583 33.0433C55.6583 33.0453 55.6583 33.0463 55.6583 33.0483L55.6563 33.0493Z" fill="#000333"/>
<path d="M52.1505 36.9488C51.3853 36.9488 50.6211 36.9468 49.8559 36.9498C49.5315 36.9508 49.421 36.833 49.4817 36.5104C49.7643 35.0345 50.0509 33.5585 50.3335 32.0826C50.3743 31.8719 50.4947 31.7571 50.7057 31.7491C50.9763 31.7391 51.247 31.7261 51.5167 31.7371C51.8182 31.7491 51.9117 31.8429 51.8809 32.1465C51.8371 32.5629 51.7644 32.9774 51.6888 33.3908C51.5784 33.9969 51.452 34.6001 51.3385 35.2062C51.2818 35.5108 51.3545 35.6007 51.653 35.5997C52.4988 35.5977 53.3446 35.5947 54.1904 35.5807C54.7656 35.5707 54.8203 35.6286 54.6949 36.1879C54.667 36.3137 54.6511 36.4415 54.6253 36.5673C54.5576 36.9039 54.5258 36.9308 54.1834 36.9308C53.5058 36.9318 52.8282 36.9308 52.1505 36.9308C52.1505 36.9368 52.1505 36.9428 52.1505 36.9488Z" fill="#000333"/>
<path fill-rule="evenodd" clip-rule="evenodd" d="M12.3652 11.2969H12.3633L12.3643 11.2949C12.3646 11.2956 12.3649 11.2963 12.3652 11.2969ZM12.3652 11.2969C12.3735 11.317 12.3803 11.3339 12.3862 11.3487C12.396 11.3732 12.4035 11.3919 12.4121 11.4098C12.6698 11.972 12.7753 12.5631 12.7017 13.1743C12.6231 13.8264 12.5236 14.4765 12.4131 15.1236C12.0887 17.0139 11.7573 18.9033 11.425 20.7916C11.0907 22.687 10.7553 24.5813 10.416 26.4756C10.2478 27.4193 10.0279 28.348 9.54033 29.1888C9.49783 29.2633 9.46265 29.3414 9.42455 29.4261C9.40645 29.4663 9.3877 29.5079 9.36719 29.5513H17.3278C17.3257 29.5325 17.3243 29.5146 17.323 29.4973C17.3206 29.4651 17.3183 29.4352 17.3118 29.4065C17.1875 28.8473 17.0999 28.2771 17.1855 27.7099C17.3466 26.6364 17.5273 25.5648 17.7079 24.4935C17.7538 24.2215 17.7997 23.9496 17.8452 23.6776C17.9278 23.1823 18.0641 23.0774 18.5636 23.0774C19.1504 23.0783 19.7372 23.08 20.3242 23.0817C21.8184 23.0861 23.3131 23.0904 24.8077 23.0804C25.5172 23.0764 26.2346 23.0634 26.9322 22.9506C28.6178 22.678 29.7622 21.7233 30.2637 20.0636C30.4617 19.4105 30.6309 18.7455 30.7732 18.0774C31.0717 16.6754 31.2876 15.2604 31.2856 13.8224C31.2846 12.9975 30.9334 12.3574 30.204 11.948C29.3801 11.4857 28.4835 11.3029 27.5511 11.3019C23.1897 11.2967 18.829 11.2968 14.4685 11.2969C13.8457 11.2969 13.2229 11.2969 12.6002 11.2969H12.3652ZM22.575 20.057C23.0352 19.9997 23.3299 19.7268 23.4611 19.2456C23.4967 19.116 23.5273 18.9846 23.5579 18.8533C23.5657 18.8196 23.5735 18.7859 23.5815 18.7523C23.8651 17.5509 24.0979 16.3396 24.1715 15.1034C24.2024 14.5701 23.9974 14.3594 23.4561 14.3554C23.0428 14.352 22.63 14.3528 22.217 14.3537C22.0334 14.354 21.8497 14.3544 21.666 14.3544L21.667 14.3534V14.3464C21.4613 14.3464 21.2557 14.3462 21.05 14.346C20.6387 14.3455 20.2274 14.3451 19.8161 14.3464C19.7723 14.3466 19.734 14.3485 19.7005 14.3527C19.5311 14.3736 19.4819 14.4536 19.4453 14.6742C19.3487 15.2554 19.2502 15.8366 19.1467 16.4177C19.0392 17.0251 18.9301 17.6319 18.8211 18.2387C18.7323 18.7323 18.6436 19.226 18.5557 19.7201C18.5049 20.0047 18.5676 20.0766 18.8572 20.0766C19.1585 20.0766 19.4598 20.0751 19.7611 20.0735C20.0021 20.0723 20.2431 20.0711 20.4841 20.0706C20.7093 20.0703 20.9343 20.0707 21.1593 20.0711C21.5717 20.0718 21.984 20.0725 22.3967 20.0686C22.4586 20.0681 22.5181 20.0642 22.575 20.057Z" fill="#000333"/>
<path fill-rule="evenodd" clip-rule="evenodd" d="M26.2488 36.9225C26.4605 36.9203 26.6724 36.9181 26.8842 36.9181H26.8832C27.0868 36.9184 27.2905 36.9212 27.4943 36.924C27.9744 36.9306 28.4544 36.9371 28.933 36.9112C29.7798 36.8652 30.4067 36.3729 30.6157 35.5571C30.8217 34.7512 30.9789 33.9303 31.1033 33.1085C31.2107 32.3985 30.76 31.8512 30.0435 31.7843C29.3579 31.7204 28.6673 31.6775 27.9777 31.6725C27.2812 31.6665 26.5836 31.7045 25.8881 31.7474C24.8681 31.8103 24.286 32.2846 24.0482 33.2763C23.878 33.9873 23.7487 34.7082 23.6253 35.4282C23.481 36.277 23.9537 36.8762 24.8134 36.9122C25.2915 36.9322 25.7701 36.9274 26.2488 36.9225ZM29.3043 33.3808C29.2304 33.1719 29.0429 33.0524 28.7609 33.0496C27.9767 33.0416 27.1916 33.0536 26.4075 33.0885C25.9558 33.1085 25.6493 33.3681 25.5488 33.8195C25.4947 34.0641 25.4552 34.3124 25.4157 34.5607C25.3978 34.6733 25.38 34.7858 25.3607 34.898C25.3277 35.0884 25.3406 35.2425 25.3994 35.3588C25.4856 35.5303 25.6711 35.6197 25.9553 35.622C26.4238 35.6255 26.8922 35.6246 27.3607 35.6238C27.5689 35.6234 27.7771 35.623 27.9852 35.623L27.9872 35.624C27.9872 35.624 28.1892 35.634 28.2907 35.632C28.8311 35.62 29.0191 35.3894 29.1306 34.918C29.2241 34.5176 29.2948 34.1092 29.3356 33.7007C29.3476 33.5789 29.3367 33.4714 29.3043 33.3808Z" fill="#000333"/>
<path fill-rule="evenodd" clip-rule="evenodd" d="M64.0593 36.9178H61.6023C61.5278 36.9178 61.4531 36.9206 61.3783 36.9234C61.2973 36.9264 61.2163 36.9293 61.1356 36.9288C60.8729 36.9288 60.8212 36.8729 60.8679 36.6083C60.9183 36.3194 60.9741 36.0313 61.0298 35.7433C61.0577 35.5993 61.0855 35.4552 61.1127 35.3111C61.1817 34.9481 61.2505 34.5849 61.3193 34.2218C61.4508 33.527 61.5824 32.832 61.7157 32.1375C61.7754 31.823 61.862 31.7471 62.1774 31.7461C62.3976 31.7461 62.6177 31.7499 62.8377 31.7536C63.0712 31.7576 63.3046 31.7616 63.5377 31.7611C63.9056 31.7603 64.2735 31.757 64.6414 31.7537C65.181 31.7489 65.7206 31.7441 66.2602 31.7471C66.6443 31.7491 67.0324 31.7651 67.4115 31.821C68.1111 31.9238 68.4663 32.3582 68.3976 33.0662C68.3588 33.4694 68.2834 33.8694 68.2082 34.2689C68.1794 34.4216 68.1507 34.5742 68.124 34.7269C68.0917 34.9118 68.0493 35.0951 68.0068 35.2782C68.0034 35.2928 68 35.3074 67.9966 35.3221C67.7618 36.3287 67.2274 36.797 66.2095 36.8649C65.7189 36.8971 65.2275 36.918 64.736 36.9389C64.5107 36.9485 64.2854 36.9581 64.0601 36.9688C64.0601 36.9521 64.0601 36.9354 64.0593 36.9178ZM62.871 35.5884C62.9372 35.6001 63.0257 35.6021 63.1412 35.5998H63.182H64.9865V35.6187C64.9867 35.6187 64.9869 35.6186 64.9871 35.6186V35.6188C65.0599 35.6134 65.1329 35.6088 65.2059 35.6042C65.3754 35.5935 65.5452 35.5828 65.7135 35.5618C65.747 35.5576 65.7795 35.5521 65.811 35.5456C66.0067 35.505 66.1646 35.4198 66.2817 35.2897C66.3836 35.1768 66.4549 35.0303 66.4936 34.8498C66.5041 34.8013 66.5146 34.7528 66.5251 34.7043C66.5946 34.3831 66.6643 34.061 66.7205 33.7374C66.7733 33.4378 66.6668 33.2171 66.4329 33.1323C66.4289 33.1308 66.4247 33.1294 66.4206 33.128C66.3061 33.0885 66.1774 33.0782 66.0552 33.0762C65.8922 33.0733 65.7292 33.0707 65.5662 33.0683C65.1429 33.0619 64.7196 33.0568 64.2964 33.0517C64.0725 33.049 63.8486 33.0463 63.6247 33.0434C63.597 33.0431 63.5694 33.0427 63.5417 33.0423C63.4217 33.0405 63.3251 33.0619 63.2498 33.109C63.205 33.137 63.1678 33.1741 63.1377 33.2208C63.1016 33.2766 63.0757 33.3463 63.0591 33.4307C63.0043 33.7128 62.9509 33.9954 62.8974 34.2781C62.8439 34.5607 62.7904 34.8433 62.7357 35.1254C62.6738 35.4426 62.6823 35.555 62.871 35.5884Z" fill="#000333"/>
<path fill-rule="evenodd" clip-rule="evenodd" d="M22.5384 36.4096C22.6339 35.8254 22.4926 35.3111 22.0498 34.8748L22.0488 34.8738C22.418 34.73 22.7076 34.5063 22.8588 34.1418C23.0708 33.6305 23.1424 33.0933 23.0976 32.547C23.0678 32.1805 22.8518 31.9299 22.4926 31.84C22.2986 31.7911 22.0926 31.7681 21.8916 31.7661C20.883 31.7578 19.8749 31.7538 18.8666 31.7498C18.4185 31.7481 17.9704 31.7463 17.5222 31.7441C17.158 31.7431 17.0307 31.84 16.962 32.1925C16.7451 33.3159 16.5292 34.4394 16.3172 35.5638C16.2545 35.8963 16.2018 36.2309 16.157 36.5664C16.1331 36.7461 16.2267 36.8909 16.4038 36.9049C16.7331 36.9319 17.0645 36.9309 17.3949 36.9249C17.5939 36.9209 17.6934 36.7831 17.7262 36.5983C17.7601 36.4056 17.7899 36.2109 17.8168 36.0172C17.8626 35.6866 18.0198 35.5578 18.3531 35.5718C18.6974 35.5858 19.0427 35.5947 19.388 35.5997C19.5422 35.6023 19.6966 35.6014 19.8509 35.6006C20.0621 35.5994 20.2732 35.5982 20.4836 35.6057C20.8577 35.6197 20.9712 35.7835 20.8965 36.154C20.892 36.1763 20.8873 36.1985 20.8826 36.2208C20.8605 36.3251 20.8386 36.4291 20.8328 36.5344C20.8169 36.847 20.9244 36.9578 21.2339 36.9548C21.3295 36.954 21.4251 36.9487 21.5206 36.9435C21.6478 36.9365 21.7748 36.9295 21.9015 36.9329C22.3294 36.9449 22.4677 36.842 22.5384 36.4096ZM21.3197 34.07C21.3627 34.013 21.3962 33.9437 21.4199 33.8622C21.4558 33.7403 21.4747 33.6105 21.4806 33.4827C21.4946 33.1891 21.398 33.0803 21.1105 33.0753C21.0413 33.074 20.9721 33.0731 20.903 33.0724C20.8521 33.0714 20.8013 33.0703 20.7505 33.0692C20.4379 33.0624 20.1249 33.0556 19.8119 33.0556L19.8119 33.0556V33.0553C19.6968 33.0553 19.5816 33.0551 19.4665 33.0549C19.2365 33.0544 19.0065 33.054 18.777 33.0553C18.61 33.0564 18.5071 33.0791 18.4371 33.148C18.379 33.2049 18.3436 33.2933 18.3133 33.4271C18.2935 33.5158 18.2763 33.6055 18.259 33.6951C18.252 33.7316 18.2449 33.7681 18.2377 33.8045C18.1681 34.163 18.2467 34.2689 18.6099 34.2739C18.9524 34.2782 19.2955 34.2774 19.6387 34.2765C19.776 34.2762 19.9134 34.2759 20.0507 34.2759C20.0913 34.2759 20.1318 34.2759 20.1724 34.276C20.4154 34.2762 20.6583 34.2765 20.9005 34.2679C21.0855 34.2617 21.2257 34.1954 21.3197 34.07Z" fill="#000333"/>
<path fill-rule="evenodd" clip-rule="evenodd" d="M42.5456 35.6131H41.1037C40.8032 35.6131 40.6927 35.71 40.649 36.0126C40.6201 36.2133 40.5873 36.414 40.5484 36.6127C40.5146 36.7885 40.4191 36.9173 40.228 36.9263C40.1855 36.9284 40.1428 36.9307 40.1001 36.933C39.8456 36.9467 39.5895 36.9605 39.3365 36.9443C39.0529 36.9263 38.9533 36.7775 39.0021 36.4809C39.0976 35.8927 39.2011 35.3066 39.3086 34.7204C39.4274 34.0713 39.5497 33.4228 39.6719 32.7744C39.7114 32.5649 39.7508 32.3555 39.7902 32.146C39.8419 31.8704 39.9693 31.7475 40.244 31.7485C40.4997 31.7496 40.7555 31.7505 41.0114 31.7513C42.2047 31.7554 43.3984 31.7595 44.5914 31.7825C45.3576 31.7975 45.7547 32.2219 45.7537 33.0008C45.7537 33.5241 45.6661 34.0393 45.4512 34.5247C45.1268 35.2586 44.5745 35.6361 43.7655 35.6251C43.4949 35.6218 43.2238 35.6229 42.9526 35.624C42.817 35.6246 42.6813 35.6251 42.5456 35.6251V35.6131ZM44.0649 33.4151C44.0361 33.1874 43.9254 33.0821 43.673 33.0767C42.9705 33.0607 42.2679 33.0517 41.5654 33.0487C41.3644 33.0487 41.2142 33.1456 41.1674 33.3563C41.1627 33.3772 41.1581 33.3982 41.1534 33.4191C41.114 33.5961 41.0743 33.774 41.0529 33.9535C41.034 34.1121 41.057 34.2073 41.1385 34.2585C41.1899 34.2909 41.2645 34.3061 41.3665 34.3088C41.6034 34.3144 41.8402 34.3131 42.077 34.3118C42.1785 34.3113 42.2799 34.3108 42.3814 34.3108V34.3129C42.3814 34.3129 42.3815 34.3129 42.3815 34.3129V34.3138C42.4763 34.3138 42.5713 34.3127 42.6663 34.3117C42.8826 34.3094 43.0992 34.307 43.3149 34.3167C43.8134 34.3387 44.095 33.9233 44.0712 33.4849C44.0698 33.4605 44.0678 33.4372 44.0649 33.4151Z" fill="#000333"/>
</svg>
