<svg width="31" height="31" viewBox="0 0 31 31" fill="none" xmlns="http://www.w3.org/2000/svg">
<path d="M15.5011 0C11.2915 0 10.7632 0.0184065 9.1099 0.0936461C7.45977 0.169209 6.33343 0.430448 5.34788 0.81375C4.32842 1.20965 3.46364 1.73923 2.60209 2.60109C1.73989 3.46264 1.2103 4.32741 0.813112 5.34653C0.428838 6.3324 0.167273 7.45905 0.093001 9.10851C0.0193752 10.7618 0 11.2905 0 15.5C0 19.7095 0.0187297 20.2362 0.0936471 21.8896C0.169533 23.5397 0.430775 24.666 0.813759 25.6515C1.20998 26.671 1.73957 27.5357 2.60144 28.3973C3.46267 29.2595 4.32745 29.7904 5.34626 30.1863C6.33246 30.5696 7.45913 30.8308 9.10893 30.9064C10.7623 30.9816 11.2903 31 15.4995 31C19.7094 31 20.2361 30.9816 21.8895 30.9064C23.5396 30.8308 24.6672 30.5696 25.6534 30.1863C26.6725 29.7904 27.536 29.2595 28.3973 28.3973C29.2595 27.5357 29.789 26.671 30.1862 25.6519C30.5673 24.666 30.8289 23.5393 30.9064 21.8899C30.9806 20.2365 31 19.7095 31 15.5C31 11.2905 30.9806 10.7622 30.9064 9.10883C30.8289 7.45873 30.5673 6.3324 30.1862 5.34685C29.789 4.32741 29.2595 3.46264 28.3973 2.60109C27.5351 1.73891 26.6729 1.20932 25.6524 0.81375C24.6643 0.430448 23.5373 0.169209 21.8872 0.0936461C20.2338 0.0184065 19.7075 0 15.4966 0H15.5011ZM14.1106 2.79323C14.5233 2.79258 14.9838 2.79323 15.5011 2.79323C19.6397 2.79323 20.1302 2.80808 21.7645 2.88235C23.2758 2.95146 24.096 3.20398 24.6423 3.41614C25.3657 3.69707 25.8814 4.03291 26.4236 4.57541C26.9661 5.11791 27.3019 5.63457 27.5835 6.35791C27.7957 6.90364 28.0485 7.72384 28.1173 9.23509C28.1916 10.8691 28.2077 11.3599 28.2077 15.4964C28.2077 19.633 28.1916 20.1238 28.1173 21.7578C28.0482 23.2691 27.7957 24.0893 27.5835 24.635C27.3026 25.3583 26.9661 25.8734 26.4236 26.4156C25.8811 26.9581 25.366 27.2939 24.6423 27.5748C24.0966 27.7879 23.2758 28.0398 21.7645 28.1089C20.1305 28.1832 19.6397 28.1993 15.5011 28.1993C11.3623 28.1993 10.8717 28.1832 9.23777 28.1089C7.72651 28.0392 6.90629 27.7867 6.35959 27.5745C5.63625 27.2936 5.11957 26.9577 4.57707 26.4152C4.03456 25.8727 3.69873 25.3574 3.41714 24.6337C3.20498 24.088 2.95214 23.2678 2.88335 21.7565C2.80908 20.1226 2.79423 19.6317 2.79423 15.4926C2.79423 11.3534 2.80908 10.8652 2.88335 9.23122C2.95246 7.71997 3.20498 6.89976 3.41714 6.35338C3.69808 5.63005 4.03456 5.11339 4.57707 4.57089C5.11957 4.02839 5.63625 3.69255 6.35959 3.41097C6.90597 3.19784 7.72651 2.94597 9.23777 2.87654C10.6677 2.81196 11.2218 2.79258 14.1106 2.78935V2.79323ZM23.775 5.36687C23.4071 5.36687 23.0474 5.47598 22.7415 5.68039C22.4357 5.88479 22.1973 6.17532 22.0565 6.51523C21.9157 6.85514 21.8789 7.22916 21.9508 7.58998C22.0226 7.9508 22.1998 8.28222 22.46 8.54232C22.7202 8.80242 23.0517 8.97952 23.4125 9.05121C23.7734 9.12291 24.1474 9.08598 24.4872 8.94511C24.8271 8.80423 25.1175 8.56573 25.3218 8.25977C25.5262 7.9538 25.6351 7.59413 25.635 7.22623C25.635 6.19935 24.8019 5.36623 23.775 5.36623V5.36687ZM15.5011 7.5401C11.1052 7.5401 7.54115 11.1041 7.54115 15.5C7.54115 19.8959 11.1052 23.4583 15.5011 23.4583C19.897 23.4583 23.4601 19.8959 23.4601 15.5C23.4601 11.1041 19.897 7.5401 15.5011 7.5401ZM15.5011 10.3333C18.3545 10.3333 20.6679 12.6464 20.6679 15.5C20.6679 18.3533 18.3545 20.6667 15.5011 20.6667C12.6475 20.6667 10.3344 18.3533 10.3344 15.5C10.3344 12.6464 12.6475 10.3333 15.5011 10.3333Z" fill="#000333"/>
</svg>
